<?xml version="1.0" standalone="no"?>
<!DOCTYPE svg PUBLIC "-//W3C//DTD SVG 20010904//EN"
 "http://www.w3.org/TR/2001/REC-SVG-20010904/DTD/svg10.dtd">
<svg version="1.0" xmlns="http://www.w3.org/2000/svg"
 width="1080.000000pt" height="1080.000000pt" viewBox="0 0 1080.000000 1080.000000"
 preserveAspectRatio="xMidYMid meet">
<metadata>
Created by potrace 1.14, written by Peter Selinger 2001-2017
</metadata>
<g transform="translate(0.000000,1080.000000) scale(0.100000,-0.100000)"
fill="#000000" stroke="none">
<path d="M1530 5417 l0 -762 250 0 250 0 0 527 0 528 48 1 c129 2 270 -1 297
-7 65 -14 123 -53 163 -111 47 -66 50 -96 50 -520 0 -219 1 -403 1 -408 1 -7
85 -10 244 -9 133 1 245 2 249 3 4 0 6 193 4 429 -3 492 -7 526 -83 682 -38
77 -62 109 -127 175 -99 98 -112 108 -206 152 -108 52 -107 52 -195 66 -58 10
-202 14 -512 16 l-433 1 0 -763z"/>
<path d="M3389 6131 c-3 -202 0 -798 6 -846 22 -214 129 -399 300 -520 146
-103 268 -139 475 -139 114 0 179 6 223 23 15 6 27 9 27 6 0 -5 102 39 155 67
121 64 248 203 306 335 12 26 31 80 42 118 19 66 21 100 24 536 l3 466 -250 0
c-224 0 -250 -1 -250 -16 -1 -9 -2 -205 -3 -436 -2 -403 -3 -422 -23 -466 -30
-65 -74 -111 -137 -143 -160 -81 -360 23 -392 204 -4 19 -7 220 -7 446 l0 411
-249 0 -249 1 -1 -47z"/>
<path d="M5278 6168 c-2 -7 -4 -350 -4 -763 l1 -750 250 0 250 0 1 525 c1 289
2 527 3 530 1 4 166 4 327 1 l31 -1 0 -527 0 -528 239 -1 c131 0 244 2 250 3
8 3 11 152 10 519 -1 284 2 521 6 526 10 18 199 12 244 -7 65 -27 100 -71 108
-137 3 -18 5 -229 5 -468 l1 -435 248 0 247 0 2 450 c2 476 -1 527 -46 645
-68 182 -241 340 -439 403 -66 21 -85 21 -898 25 -677 2 -832 1 -836 -10z"/>
<path d="M8400 6173 c-178 -28 -379 -141 -481 -272 -19 -23 -39 -48 -44 -55
-12 -13 -86 -153 -85 -161 0 -3 -6 -29 -14 -58 -22 -74 -29 -139 -29 -242 2
-267 155 -505 422 -654 28 -15 127 -51 156 -57 11 -1 44 -7 74 -12 29 -5 237
-10 462 -10 l409 -1 0 765 0 765 -422 -2 c-233 -1 -434 -4 -448 -6z m370 -759
l0 -296 -147 4 c-169 5 -213 18 -275 82 -60 62 -82 118 -81 211 0 99 22 155
89 219 64 63 107 74 277 75 l137 1 0 -296z"/>
</g>
</svg>
